<svg height="540" id="visual" version="1.1" viewBox="0 0 960 540" width="960" xmlns="http://www.w3.org/2000/svg">
  <path
    d="M0 125L87 195L175 109L262 168L349 163L436 222L524 114L611 217L698 120L785 212L873 120L960 195L960 0L873 0L785 0L698 0L611 0L524 0L436 0L349 0L262 0L175 0L87 0L0 0Z"
    fill="#0a1b2d"></path>
  <path
    d="M0 228L87 249L175 228L262 255L349 276L436 336L524 233L611 293L698 244L785 260L873 249L960 266L960 193L873 118L785 210L698 118L611 215L524 112L436 220L349 161L262 166L175 107L87 193L0 123Z"
    fill="#01284e"></path>
  <path
    d="M0 465L87 433L175 433L262 379L349 433L436 487L524 417L611 487L698 492L785 433L873 492L960 449L960 264L873 247L785 258L698 242L611 291L524 231L436 334L349 274L262 253L175 226L87 247L0 226Z"
    fill="#01284e"></path>
  <path
    d="M0 541L87 541L175 541L262 541L349 541L436 541L524 541L611 541L698 541L785 541L873 541L960 541L960 447L873 490L785 431L698 490L611 485L524 415L436 485L349 431L262 377L175 431L87 431L0 463Z"
    fill="#0a1b2d"></path>
</svg>
