<svg height="540" id="visual" version="1.1" viewBox="0 0 960 540" width="960" xmlns="http://www.w3.org/2000/svg">
  <path
    d="M0 120L87 60L175 60L262 109L349 98L436 50L524 50L611 77L698 104L785 66L873 114L960 136L960 0L873 0L785 0L698 0L611 0L524 0L436 0L349 0L262 0L175 0L87 0L0 0Z"
    fill="#140021"></path>
  <path
    d="M0 201L87 120L175 136L262 195L349 185L436 114L524 152L611 131L698 201L785 158L873 201L960 244L960 134L873 112L785 64L698 102L611 75L524 48L436 48L349 96L262 107L175 58L87 58L0 118Z"
    fill="#0e0523"></path>
  <path
    d="M0 282L87 271L175 249L262 282L349 325L436 325L524 352L611 276L698 384L785 374L873 401L960 395L960 242L873 199L785 156L698 199L611 129L524 150L436 112L349 183L262 193L175 134L87 118L0 199Z"
    fill="#070a23"></path>
  <path
    d="M0 336L87 303L175 320L262 368L349 395L436 374L524 444L611 357L698 438L785 417L873 455L960 428L960 393L873 399L785 372L698 382L611 274L524 350L436 323L349 323L262 280L175 247L87 269L0 280Z"
    fill="#020e23"></path>
  <path
    d="M0 541L87 541L175 541L262 541L349 541L436 541L524 541L611 541L698 541L785 541L873 541L960 541L960 426L873 453L785 415L698 436L611 355L524 442L436 372L349 393L262 366L175 318L87 301L0 334Z"
    fill="#001122"></path>
</svg>
